<svg xmlns="http://www.w3.org/2000/svg" xmlns:xlink="http://www.w3.org/1999/xlink" x="0px" y="0px" viewBox="0 0 785.6 451.7" style="enable-background:new 0 0 785.6 451.7;" xml:space="preserve"><style type="text/css">	.st0{display:none;}	.st1{display:inline;fill:none;}	.st2{display:inline;fill:#575550;}	.st3{font-family:'Poppins-BlackItalic';}	.st4{font-size:89.6644px;}	.st5{display:inline;fill:#FFFFFF;}	.st6{fill:#FFFFFF;}	.st7{fill:#FCBF00;}	.st8{fill:#FFD979;}	.st9{fill:#9BB5DF;}	.st10{fill:#739DD3;}	.st11{fill:#4A8AC9;}	.st12{fill:#0067B2;}	.st13{fill:#F49A6D;}	.st14{fill:#F18755;}	.st15{fill:#ED6D3A;}	.st16{fill:#E9511D;}	.st17{fill:#EC6550;}</style><g id="Academy_Original" class="st0">	<polygon class="st1" points="705.2,395.9 243.8,393.3 257.1,324.8 718.6,327.5  "></polygon>	<text transform="matrix(0.9146 5.185668e-03 -0.1913 0.9815 272.9605 390.1305)" class="st2 st3 st4">ACADEMY</text>	<polygon id="Flecha_00000008843754763368558110000013916642035149059250_" class="st5" points="514.5,359.5 495.1,347 494.3,352.1   384.4,352.1 378.9,366.8 491.9,366.8 491,371.8  "></polygon></g><g id="Academy_en_curvas">	<g>		<path class="st6" d="M313.6,380.9l-19.4-0.1l-6.3,9.4l-19.1-0.1l43.6-62.1l21,0.1l-1.2,62.4l-19.2-0.1L313.6,380.9z M314.5,366.1   l1-17.4L304,366.1L314.5,366.1z"></path>		<path class="st6" d="M557.5,344.8l-2.7,7.7l18,0.1l-5.3,14.7l-18-0.1l-3.2,8.8l20.5,0.1l-5.6,15.6l-38.7-0.2l22.4-62.3l38.7,0.2   l-5.6,15.5L557.5,344.8z"></path>		<path class="st6" d="M660.2,329.9l-22.4,62.3l-18.1-0.1l11.1-31L610.7,392l-15.6-0.1l2.2-31.3l-11.2,31.2l-18.2-0.1l22.4-62.3   l22.3,0.1l-0.7,37.5l25.9-37.4L660.2,329.9z"></path>		<path class="st6" d="M724.2,330.2l-36.4,43.2l-6.8,18.9l-18.2-0.1l6.8-18.9l-5.2-43.5l20.8,0.1l1.4,22.1l17.2-22L724.2,330.2z"></path>		<path class="st6" d="M528.3,341c-1.3-3.7-3.7-6.7-7.1-8.8c-3.4-2.1-7.8-3.2-13.2-3.2l-24.2-0.1l-8.4,23.2h19l0.8-5l19.4,12.5   l-23.5,12.3l0.8-5h-21.9l-8.8,24.3l24.2,0.1c6.1,0,11.9-1.3,17.4-4c5.5-2.7,10.4-6.4,14.6-11.2c4.2-4.7,7.3-10.1,9.5-16   c0.8-2.2,1.3-4.3,1.7-6.2C529.8,349,529.6,344.7,528.3,341z"></path>		<g>			<polygon class="st6" points="458.2,352.1 458.6,328.7 437.6,328.6 421.1,352.1    "></polygon>			<polygon class="st6" points="439.6,366.8 439.6,366.9 430,366.8 410.8,366.8 394,390.7 413.1,390.8 419.4,381.5 438.7,381.6     438.2,391 457.4,391.1 457.9,366.8    "></polygon>		</g>		<path class="st6" d="M380.8,366.8c-1.5,1.9-3.3,3.4-5.2,4.5c-2,1.1-4.1,1.7-6.2,1.7c-2.6,0-4.4-0.9-5.4-2.7   c-1.1-1.8-1.3-4.2-0.7-7.2c0.3-1.3,0.6-2.6,1.1-3.8c1.5-4.2,3.5-7.5,6.2-9.9c2.7-2.5,5.5-3.7,8.6-3.7c2.1,0,3.7,0.6,4.9,1.7   c1.2,1.1,1.8,2.7,2,4.6h19.3c0.9-4.8,0.8-9-0.3-12.7c-1.2-3.7-3.4-6.6-6.7-8.6c-3.2-2-7.4-3.1-12.4-3.1c-5.9,0-11.4,1.3-16.7,3.9   c-5.3,2.6-9.9,6.4-14,11.2c-4.1,4.8-7.2,10.3-9.4,16.4c-0.8,2.3-1.5,4.6-1.9,7c-1,4.9-0.9,9.3,0.3,13c1.1,3.7,3.3,6.6,6.5,8.7   c3.2,2,7.4,3.1,12.4,3.1c5,0,9.9-1,14.6-3c4.7-2,8.9-4.8,12.8-8.5c3.8-3.6,7-7.9,9.6-12.7H380.8z"></path>	</g></g><g id="Capa_15"></g><g id="L_vertical">	<rect x="287.3" y="61.5" class="st7" width="61.5" height="237.1"></rect></g><g id="L_horizontal">	<polygon class="st8" points="524.7,237.1 502.4,298.6 287.3,298.6 348.8,237.1  "></polygon></g><g id="A_raya_3">	<polygon class="st9" points="724.2,298.6 637.9,61.5 629.7,61.5 716,298.6  "></polygon></g><g id="A_raya_2">	<g>		<polygon class="st10" points="707.8,298.6 621.5,61.5 613.3,61.5 699.6,298.6   "></polygon>	</g></g><g id="A_raya_1">	<g>		<polygon class="st11" points="691.5,298.6 605.2,61.5 597,61.5 683.3,298.6   "></polygon>	</g></g><g id="A_izquierda">	<polygon class="st12" points="588.8,61.5 523.2,61.5 436.9,298.6 502.5,298.6  "></polygon>	<polygon class="st11" points="523.2,61.5 588.8,61.5 675.1,298.6 609.5,298.6  "></polygon></g><g id="A_derecha"></g><g id="V_raya_3">	<polygon class="st13" points="155.9,298.6 69.6,61.5 61.5,61.5 147.8,298.6  "></polygon></g><g id="V_raya_2">	<polygon class="st14" points="172.3,298.6 86,61.5 77.8,61.5 164.1,298.6  "></polygon></g><g id="V_raya_1">	<polygon class="st15" points="188.7,298.6 102.3,61.5 94.2,61.5 180.5,298.6  "></polygon></g><g id="V_izquierda">	<polygon class="st16" points="262.4,298.6 196.8,298.6 110.5,61.5 176.1,61.5  "></polygon></g><g id="V_derecha">	<polygon class="st17" points="196.8,298.6 262.4,298.6 348.8,61.5 283.2,61.5  "></polygon></g><g id="Margen"></g></svg>